<svg width="262" height="78" viewBox="32 50 262 78" xmlns="http://www.w3.org/2000/svg" role="img" aria-label="revelio">
  <title>revelio</title>
  <g transform="translate(12,42)">
    <polygon points="26.51,72.70 33.49,79.30 65.16,41.10 62.84,38.90" fill="#6E66C9"/>
    <line x1="40.12" y1="73.30" x2="32.12" y2="65.74" stroke="#E8B23A" stroke-width="2.6" stroke-linecap="round"/>
    <path d="M70,16 Q73.4,30.6 88,34 Q73.4,37.4 70,52 Q66.6,37.4 52,34 Q66.6,30.6 70,16 Z" fill="#E8B23A"/>
    <path d="M70,26 Q71.6,32.4 78,34 Q71.6,35.6 70,42 Q68.4,35.6 62,34 Q68.4,32.4 70,26 Z" fill="#FBF3DC"/>
    <path d="M52,14 Q53.2,18.8 58,20 Q53.2,21.2 52,26 Q50.8,21.2 46,20 Q50.8,18.8 52,14 Z" fill="#E8B23A"/>
    <path d="M78,53.5 Q78.9,57.1 82.5,58 Q78.9,58.9 78,62.5 Q77.1,58.9 73.5,58 Q77.1,57.1 78,53.5 Z" fill="#E8B23A"/>
  </g>
  <g>
    <path transform="translate(109.00,108) scale(0.05400,-0.05400)" fill="#FBF3DC" d="M379 562V415H342Q276 415 242.5 384.0Q209 353 209 276V0H69V554H209V468Q236 512 279.5 537.0Q323 562 379 562Z"/>
    <path transform="translate(129.82,108) scale(0.05400,-0.05400)" fill="#FBF3DC" d="M580 235H175Q180 175 217.0 141.0Q254 107 308 107Q386 107 419 174H570Q546 94 478.0 42.5Q410 -9 311 -9Q231 -9 167.5 26.5Q104 62 68.5 127.0Q33 192 33 277Q33 363 68.0 428.0Q103 493 166.0 528.0Q229 563 311 563Q390 563 452.5 529.0Q515 495 549.5 432.5Q584 370 584 289Q584 259 580 235ZM439 329Q438 383 400.0 415.5Q362 448 307 448Q255 448 219.5 416.5Q184 385 176 329Z"/>
    <path transform="translate(162.13,108) scale(0.05400,-0.05400)" fill="#FBF3DC" d="M300 129 440 554H589L384 0H214L10 554H160Z"/>
    <path transform="translate(193.48,108) scale(0.05400,-0.05400)" fill="#FBF3DC" d="M580 235H175Q180 175 217.0 141.0Q254 107 308 107Q386 107 419 174H570Q546 94 478.0 42.5Q410 -9 311 -9Q231 -9 167.5 26.5Q104 62 68.5 127.0Q33 192 33 277Q33 363 68.0 428.0Q103 493 166.0 528.0Q229 563 311 563Q390 563 452.5 529.0Q515 495 549.5 432.5Q584 370 584 289Q584 259 580 235ZM439 329Q438 383 400.0 415.5Q362 448 307 448Q255 448 219.5 416.5Q184 385 176 329Z"/>
    <path transform="translate(225.80,108) scale(0.05400,-0.05400)" fill="#FBF3DC" d="M209 740V0H69V740Z"/>
    <path transform="translate(239.81,108) scale(0.05400,-0.05400)" fill="#FBF3DC" d="M209 554V0H69V554Z"/>
    <path d="M247.3,63.0 Q248.54,68.26 253.8,69.5 Q248.54,70.74 247.3,76.0 Q246.06,70.74 240.8,69.5 Q246.06,68.26 247.3,63.0 Z" fill="#E8B23A"/>
    <path transform="translate(253.82,108) scale(0.05400,-0.05400)" fill="#FBF3DC" d="M34 277Q34 362 71.5 427.0Q109 492 174.0 527.5Q239 563 319 563Q399 563 464.0 527.5Q529 492 566.5 427.0Q604 362 604 277Q604 192 565.5 127.0Q527 62 461.5 26.5Q396 -9 315 -9Q235 -9 171.0 26.5Q107 62 70.5 127.0Q34 192 34 277ZM460 277Q460 356 418.5 398.5Q377 441 317 441Q257 441 216.5 398.5Q176 356 176 277Q176 198 215.5 155.5Q255 113 315 113Q353 113 386.5 131.5Q420 150 440.0 187.0Q460 224 460 277Z"/>
  </g>
</svg>
