<svg width="476" height="180" viewBox="0 0 476 180" xmlns="http://www.w3.org/2000/svg" role="img" aria-label="revelio.cards">
  <title>revelio.cards</title>
  <rect x="0" y="0" width="476" height="180" fill="#13122A"/>
  <g transform="translate(12,42)">
    <polygon points="26.51,72.70 33.49,79.30 65.16,41.10 62.84,38.90" fill="#6E66C9"/>
    <line x1="40.12" y1="73.30" x2="32.12" y2="65.74" stroke="#E8B23A" stroke-width="2.6" stroke-linecap="round"/>
    <path d="M70,16 Q73.4,30.6 88,34 Q73.4,37.4 70,52 Q66.6,37.4 52,34 Q66.6,30.6 70,16 Z" fill="#E8B23A"/>
    <path d="M70,26 Q71.6,32.4 78,34 Q71.6,35.6 70,42 Q68.4,35.6 62,34 Q68.4,32.4 70,26 Z" fill="#FBF3DC"/>
    <path d="M52,14 Q53.2,18.8 58,20 Q53.2,21.2 52,26 Q50.8,21.2 46,20 Q50.8,18.8 52,14 Z" fill="#E8B23A"/>
    <path d="M78,53.5 Q78.9,57.1 82.5,58 Q78.9,58.9 78,62.5 Q77.1,58.9 73.5,58 Q77.1,57.1 78,53.5 Z" fill="#E8B23A"/>
  </g>
  <g>
    <path transform="translate(109.00,108) scale(0.05400,-0.05400)" fill="#FBF3DC" d="M379 562V415H342Q276 415 242.5 384.0Q209 353 209 276V0H69V554H209V468Q236 512 279.5 537.0Q323 562 379 562Z"/>
    <path transform="translate(129.82,108) scale(0.05400,-0.05400)" fill="#FBF3DC" d="M580 235H175Q180 175 217.0 141.0Q254 107 308 107Q386 107 419 174H570Q546 94 478.0 42.5Q410 -9 311 -9Q231 -9 167.5 26.5Q104 62 68.5 127.0Q33 192 33 277Q33 363 68.0 428.0Q103 493 166.0 528.0Q229 563 311 563Q390 563 452.5 529.0Q515 495 549.5 432.5Q584 370 584 289Q584 259 580 235ZM439 329Q438 383 400.0 415.5Q362 448 307 448Q255 448 219.5 416.5Q184 385 176 329Z"/>
    <path transform="translate(162.13,108) scale(0.05400,-0.05400)" fill="#FBF3DC" d="M300 129 440 554H589L384 0H214L10 554H160Z"/>
    <path transform="translate(193.48,108) scale(0.05400,-0.05400)" fill="#FBF3DC" d="M580 235H175Q180 175 217.0 141.0Q254 107 308 107Q386 107 419 174H570Q546 94 478.0 42.5Q410 -9 311 -9Q231 -9 167.5 26.5Q104 62 68.5 127.0Q33 192 33 277Q33 363 68.0 428.0Q103 493 166.0 528.0Q229 563 311 563Q390 563 452.5 529.0Q515 495 549.5 432.5Q584 370 584 289Q584 259 580 235ZM439 329Q438 383 400.0 415.5Q362 448 307 448Q255 448 219.5 416.5Q184 385 176 329Z"/>
    <path transform="translate(225.80,108) scale(0.05400,-0.05400)" fill="#FBF3DC" d="M209 740V0H69V740Z"/>
    <path transform="translate(239.81,108) scale(0.05400,-0.05400)" fill="#FBF3DC" d="M54 702Q54 737 78.5 760.5Q103 784 140 784Q177 784 201.5 760.5Q226 737 226 702Q226 667 201.5 643.5Q177 620 140 620Q103 620 78.5 643.5Q54 667 54 702ZM209 554V0H69V554Z"/>
    <path transform="translate(253.82,108) scale(0.05400,-0.05400)" fill="#FBF3DC" d="M34 277Q34 362 71.5 427.0Q109 492 174.0 527.5Q239 563 319 563Q399 563 464.0 527.5Q529 492 566.5 427.0Q604 362 604 277Q604 192 565.5 127.0Q527 62 461.5 26.5Q396 -9 315 -9Q235 -9 171.0 26.5Q107 62 70.5 127.0Q34 192 34 277ZM460 277Q460 356 418.5 398.5Q377 441 317 441Q257 441 216.5 398.5Q176 356 176 277Q176 198 215.5 155.5Q255 113 315 113Q353 113 386.5 131.5Q420 150 440.0 187.0Q460 224 460 277Z"/>
    <path transform="translate(287.27,108) scale(0.05400,-0.05400)" fill="#E8B23A" d="M44 75Q44 110 68.5 133.5Q93 157 131 157Q168 157 192.0 133.5Q216 110 216 75Q216 40 192.0 16.5Q168 -7 131 -7Q93 -7 68.5 16.5Q44 40 44 75Z"/>
    <path transform="translate(300.31,108) scale(0.05400,-0.05400)" fill="#E8B23A" d="M307 563Q410 563 477.5 511.5Q545 460 568 367H417Q405 403 376.5 423.5Q348 444 306 444Q246 444 211.0 400.5Q176 357 176 277Q176 198 211.0 154.5Q246 111 306 111Q391 111 417 187H568Q545 97 477.0 44.0Q409 -9 307 -9Q227 -9 165.0 26.5Q103 62 68.0 126.5Q33 191 33 277Q33 363 68.0 427.5Q103 492 165.0 527.5Q227 563 307 563Z"/>
    <path transform="translate(331.82,108) scale(0.05400,-0.05400)" fill="#E8B23A" d="M286 563Q348 563 394.5 538.0Q441 513 469 475V554H610V0H469V81Q442 42 394.5 16.5Q347 -9 285 -9Q215 -9 157.5 27.0Q100 63 66.5 128.5Q33 194 33 279Q33 363 66.5 428.0Q100 493 157.5 528.0Q215 563 286 563ZM322 440Q283 440 250.0 421.0Q217 402 196.5 365.5Q176 329 176 279Q176 229 196.5 191.5Q217 154 250.5 134.0Q284 114 322 114Q361 114 395.0 133.5Q429 153 449.0 189.5Q469 226 469 277Q469 328 449.0 364.5Q429 401 395.0 420.5Q361 440 322 440Z"/>
    <path transform="translate(367.43,108) scale(0.05400,-0.05400)" fill="#E8B23A" d="M379 562V415H342Q276 415 242.5 384.0Q209 353 209 276V0H69V554H209V468Q236 512 279.5 537.0Q323 562 379 562Z"/>
    <path transform="translate(388.25,108) scale(0.05400,-0.05400)" fill="#E8B23A" d="M287 563Q341 563 390.0 539.5Q439 516 468 477V740H610V0H468V82Q442 41 395.0 16.0Q348 -9 286 -9Q216 -9 158.0 27.0Q100 63 66.5 128.5Q33 194 33 279Q33 363 66.5 428.0Q100 493 158.0 528.0Q216 563 287 563ZM322 440Q283 440 250.0 421.0Q217 402 196.5 365.5Q176 329 176 279Q176 229 196.5 191.5Q217 154 250.5 134.0Q284 114 322 114Q361 114 395.0 133.5Q429 153 449.0 189.5Q469 226 469 277Q469 328 449.0 364.5Q429 401 395.0 420.5Q361 440 322 440Z"/>
    <path transform="translate(423.86,108) scale(0.05400,-0.05400)" fill="#E8B23A" d="M39 175H180Q184 143 211.5 122.0Q239 101 280 101Q320 101 342.5 117.0Q365 133 365 158Q365 185 337.5 198.5Q310 212 250 228Q188 243 148.5 259.0Q109 275 80.5 308.0Q52 341 52 397Q52 443 78.5 481.0Q105 519 154.5 541.0Q204 563 271 563Q370 563 429.0 513.5Q488 464 494 380H360Q357 413 332.5 432.5Q308 452 267 452Q229 452 208.5 438.0Q188 424 188 399Q188 371 216.0 356.5Q244 342 303 327Q363 312 402.0 296.0Q441 280 469.5 246.5Q498 213 499 158Q499 110 472.5 72.0Q446 34 396.5 12.5Q347 -9 281 -9Q213 -9 159.0 15.5Q105 40 73.5 82.0Q42 124 39 175Z"/>
  </g>
</svg>
